<svg width="251" height="67" viewBox="0 0 251 67" fill="none" xmlns="http://www.w3.org/2000/svg">
<path d="M219.797 64.4766L110.334 64.98L137.484 32.9467L138.643 31.58L137.411 30.2788L110.647 2H219.857L248.293 31.7178L219.797 64.4766Z" fill="#505469" stroke="#3DABC2" stroke-width="4"/>
<path d="M101 12L119 33.5L101 55" stroke="#6CAEBA" stroke-width="8"/>
<path d="M81 12L98 33.5L81 55" stroke="#527783" stroke-width="8"/>
<path d="M60 12L77 33.5L60 55" stroke="#3E505D" stroke-width="8"/>
<path d="M51 23L59 34L51 45" stroke="#3F525F" stroke-width="5"/>
<path d="M36 23L44 34L36 45" stroke="#3F525F" stroke-width="5"/>
<path d="M20 23L28 34L20 45" stroke="#3F525F" stroke-width="5"/>
<path d="M3 23L11 34L3 45" stroke="#3F525F" stroke-width="5"/>
<path d="M181.172 15.5C184.5 15.5 187.102 16.6875 188.977 19.0625C191.211 21.875 192.328 26.5391 192.328 33.0547C192.328 39.5547 191.203 44.2266 188.953 47.0703C187.094 49.4141 184.5 50.5859 181.172 50.5859C177.828 50.5859 175.133 49.3047 173.086 46.7422C171.039 44.1641 170.016 39.5781 170.016 32.9844C170.016 26.5156 171.141 21.8594 173.391 19.0156C175.25 16.6719 177.844 15.5 181.172 15.5ZM181.172 20.9609C180.375 20.9609 179.664 21.2188 179.039 21.7344C178.414 22.2344 177.93 23.1406 177.586 24.4531C177.133 26.1562 176.906 29.0234 176.906 33.0547C176.906 37.0859 177.109 39.8594 177.516 41.375C177.922 42.875 178.43 43.875 179.039 44.375C179.664 44.875 180.375 45.125 181.172 45.125C181.969 45.125 182.68 44.875 183.305 44.375C183.93 43.8594 184.414 42.9453 184.758 41.6328C185.211 39.9453 185.438 37.0859 185.438 33.0547C185.438 29.0234 185.234 26.2578 184.828 24.7578C184.422 23.2422 183.906 22.2344 183.281 21.7344C182.672 21.2188 181.969 20.9609 181.172 20.9609ZM213.609 50H207.023V25.1797C204.617 27.4297 201.781 29.0938 198.516 30.1719V24.1953C200.234 23.6328 202.102 22.5703 204.117 21.0078C206.133 19.4297 207.516 17.5938 208.266 15.5H213.609V50Z" fill="white"/>
</svg>
