<svg width="223" height="176" viewBox="0 0 223 176" fill="none" xmlns="http://www.w3.org/2000/svg">
<path d="M102.449 7.87134C107.742 3.64244 115.258 3.64243 120.551 7.87133L207.839 77.6109C215.16 83.4603 215.093 94.614 207.702 100.375L120.414 168.417C115.174 172.502 107.826 172.502 102.586 168.417L15.2978 100.375C7.90699 94.614 7.84016 83.4604 15.1614 77.6109L102.449 7.87134Z" fill="#474B61" stroke="#328CA1"/>
<path d="M94.5625 76C99 76 102.469 77.5833 104.969 80.75C107.948 84.5 109.438 90.7188 109.438 99.4062C109.438 108.073 107.938 114.302 104.938 118.094C102.458 121.219 99 122.781 94.5625 122.781C90.1042 122.781 86.5104 121.073 83.7812 117.656C81.0521 114.219 79.6875 108.104 79.6875 99.3125C79.6875 90.6875 81.1875 84.4792 84.1875 80.6875C86.6667 77.5625 90.125 76 94.5625 76ZM94.5625 83.2812C93.5 83.2812 92.5521 83.625 91.7188 84.3125C90.8854 84.9792 90.2396 86.1875 89.7812 87.9375C89.1771 90.2083 88.875 94.0312 88.875 99.4062C88.875 104.781 89.1458 108.479 89.6875 110.5C90.2292 112.5 90.9062 113.833 91.7188 114.5C92.5521 115.167 93.5 115.5 94.5625 115.5C95.625 115.5 96.5729 115.167 97.4062 114.5C98.2396 113.812 98.8854 112.594 99.3438 110.844C99.9479 108.594 100.25 104.781 100.25 99.4062C100.25 94.0312 99.9792 90.3438 99.4375 88.3438C98.8958 86.3229 98.2083 84.9792 97.375 84.3125C96.5625 83.625 95.625 83.2812 94.5625 83.2812ZM137.812 122H129.031V88.9062C125.823 91.9062 122.042 94.125 117.688 95.5625V87.5938C119.979 86.8438 122.469 85.4271 125.156 83.3438C127.844 81.2396 129.688 78.7917 130.688 76H137.812V122Z" fill="white"/>
<path d="M71.56 63.18C70.288 63.18 69.136 62.904 68.104 62.352C67.084 61.788 66.28 61.014 65.692 60.03C65.116 59.046 64.828 57.936 64.828 56.7C64.828 55.464 65.122 54.354 65.71 53.37C66.298 52.386 67.102 51.618 68.122 51.066C69.154 50.502 70.306 50.22 71.578 50.22C72.61 50.22 73.552 50.4 74.404 50.76C75.256 51.12 75.976 51.642 76.564 52.326L75.052 53.748C74.14 52.764 73.018 52.272 71.686 52.272C70.822 52.272 70.048 52.464 69.364 52.848C68.68 53.22 68.146 53.742 67.762 54.414C67.378 55.086 67.186 55.848 67.186 56.7C67.186 57.552 67.378 58.314 67.762 58.986C68.146 59.658 68.68 60.186 69.364 60.57C70.048 60.942 70.822 61.128 71.686 61.128C73.018 61.128 74.14 60.63 75.052 59.634L76.564 61.074C75.976 61.758 75.25 62.28 74.386 62.64C73.534 63 72.592 63.18 71.56 63.18ZM87.74 52.38H83.564V63H81.242V52.38H77.084V50.4H87.74V52.38ZM100.031 50.4L94.5592 60.57C94.0792 61.47 93.5032 62.148 92.8312 62.604C92.1712 63.048 91.4512 63.27 90.6712 63.27C90.0472 63.27 89.4292 63.138 88.8172 62.874L89.3932 61.038C89.8852 61.194 90.2932 61.272 90.6172 61.272C91.3732 61.272 91.9972 60.882 92.4892 60.102L92.6872 59.796L87.6652 50.4H90.1672L93.8932 57.798L97.7272 50.4H100.031ZM112.819 50.4V63H110.515V52.38H103.981V63H101.677V50.4H112.819ZM125.821 61.038V63H116.371V50.4H125.569V52.362H118.711V55.638H124.795V57.564H118.711V61.038H125.821ZM139.626 50.4V63H137.286V57.6H130.77V63H128.43V50.4H130.77V55.602H137.286V50.4H139.626ZM148.974 54.666C150.486 54.666 151.644 55.008 152.448 55.692C153.264 56.364 153.672 57.366 153.672 58.698C153.672 60.09 153.228 61.158 152.34 61.902C151.452 62.634 150.204 63 148.596 63H143.178V50.4H145.482V54.666H148.974ZM148.488 61.2C149.4 61.2 150.102 60.99 150.594 60.57C151.086 60.15 151.332 59.538 151.332 58.734C151.332 57.21 150.384 56.448 148.488 56.448H145.482V61.2H148.488Z" fill="#2C8FA5"/>
</svg>
