<svg width="223" height="176" viewBox="0 0 223 176" fill="none" xmlns="http://www.w3.org/2000/svg">
<path d="M102.449 7.87134C107.742 3.64244 115.258 3.64243 120.551 7.87133L207.839 77.6109C215.16 83.4603 215.093 94.614 207.702 100.375L120.414 168.417C115.174 172.502 107.826 172.502 102.586 168.417L15.2978 100.375C7.90699 94.614 7.84016 83.4604 15.1614 77.6109L102.449 7.87134Z" fill="#474B61" stroke="#328CA1"/>
<path d="M92.5625 76C97 76 100.469 77.5833 102.969 80.75C105.948 84.5 107.438 90.7188 107.438 99.4062C107.438 108.073 105.938 114.302 102.938 118.094C100.458 121.219 97 122.781 92.5625 122.781C88.1042 122.781 84.5104 121.073 81.7812 117.656C79.0521 114.219 77.6875 108.104 77.6875 99.3125C77.6875 90.6875 79.1875 84.4792 82.1875 80.6875C84.6667 77.5625 88.125 76 92.5625 76ZM92.5625 83.2812C91.5 83.2812 90.5521 83.625 89.7188 84.3125C88.8854 84.9792 88.2396 86.1875 87.7812 87.9375C87.1771 90.2083 86.875 94.0312 86.875 99.4062C86.875 104.781 87.1458 108.479 87.6875 110.5C88.2292 112.5 88.9062 113.833 89.7188 114.5C90.5521 115.167 91.5 115.5 92.5625 115.5C93.625 115.5 94.5729 115.167 95.4062 114.5C96.2396 113.812 96.8854 112.594 97.3438 110.844C97.9479 108.594 98.25 104.781 98.25 99.4062C98.25 94.0312 97.9792 90.3438 97.4375 88.3438C96.8958 86.3229 96.2083 84.9792 95.375 84.3125C94.5625 83.625 93.625 83.2812 92.5625 83.2812ZM143 113.844V122H112.219C112.552 118.917 113.552 116 115.219 113.25C116.885 110.479 120.177 106.812 125.094 102.25C129.052 98.5625 131.479 96.0625 132.375 94.75C133.583 92.9375 134.188 91.1458 134.188 89.375C134.188 87.4167 133.656 85.9167 132.594 84.875C131.552 83.8125 130.104 83.2812 128.25 83.2812C126.417 83.2812 124.958 83.8333 123.875 84.9375C122.792 86.0417 122.167 87.875 122 90.4375L113.25 89.5625C113.771 84.7292 115.406 81.2604 118.156 79.1562C120.906 77.0521 124.344 76 128.469 76C132.99 76 136.542 77.2188 139.125 79.6562C141.708 82.0938 143 85.125 143 88.75C143 90.8125 142.625 92.7812 141.875 94.6562C141.146 96.5104 139.979 98.4583 138.375 100.5C137.312 101.854 135.396 103.802 132.625 106.344C129.854 108.885 128.094 110.573 127.344 111.406C126.615 112.24 126.021 113.052 125.562 113.844H143Z" fill="white"/>
<path d="M73.56 63.18C72.288 63.18 71.136 62.904 70.104 62.352C69.084 61.788 68.28 61.014 67.692 60.03C67.116 59.046 66.828 57.936 66.828 56.7C66.828 55.464 67.122 54.354 67.71 53.37C68.298 52.386 69.102 51.618 70.122 51.066C71.154 50.502 72.306 50.22 73.578 50.22C74.61 50.22 75.552 50.4 76.404 50.76C77.256 51.12 77.976 51.642 78.564 52.326L77.052 53.748C76.14 52.764 75.018 52.272 73.686 52.272C72.822 52.272 72.048 52.464 71.364 52.848C70.68 53.22 70.146 53.742 69.762 54.414C69.378 55.086 69.186 55.848 69.186 56.7C69.186 57.552 69.378 58.314 69.762 58.986C70.146 59.658 70.68 60.186 71.364 60.57C72.048 60.942 72.822 61.128 73.686 61.128C75.018 61.128 76.14 60.63 77.052 59.634L78.564 61.074C77.976 61.758 77.25 62.28 76.386 62.64C75.534 63 74.592 63.18 73.56 63.18ZM89.74 52.38H85.564V63H83.242V52.38H79.084V50.4H89.74V52.38ZM102.031 50.4L96.5592 60.57C96.0792 61.47 95.5032 62.148 94.8312 62.604C94.1712 63.048 93.4512 63.27 92.6712 63.27C92.0472 63.27 91.4292 63.138 90.8172 62.874L91.3932 61.038C91.8852 61.194 92.2932 61.272 92.6172 61.272C93.3732 61.272 93.9972 60.882 94.4892 60.102L94.6872 59.796L89.6652 50.4H92.1672L95.8932 57.798L99.7272 50.4H102.031ZM114.819 50.4V63H112.515V52.38H105.981V63H103.677V50.4H114.819ZM127.821 61.038V63H118.371V50.4H127.569V52.362H120.711V55.638H126.795V57.564H120.711V61.038H127.821ZM141.626 50.4V63H139.286V57.6H132.77V63H130.43V50.4H132.77V55.602H139.286V50.4H141.626ZM150.974 54.666C152.486 54.666 153.644 55.008 154.448 55.692C155.264 56.364 155.672 57.366 155.672 58.698C155.672 60.09 155.228 61.158 154.34 61.902C153.452 62.634 152.204 63 150.596 63H145.178V50.4H147.482V54.666H150.974ZM150.488 61.2C151.4 61.2 152.102 60.99 152.594 60.57C153.086 60.15 153.332 59.538 153.332 58.734C153.332 57.21 152.384 56.448 150.488 56.448H147.482V61.2H150.488Z" fill="#2C8FA5"/>
</svg>
