<svg width="223" height="176" viewBox="0 0 223 176" fill="none" xmlns="http://www.w3.org/2000/svg">
<path d="M102.449 7.87134C107.742 3.64244 115.258 3.64243 120.551 7.87133L207.839 77.6109C215.16 83.4603 215.093 94.614 207.702 100.375L120.414 168.417C115.174 172.502 107.826 172.502 102.586 168.417L15.2978 100.375C7.90699 94.614 7.84016 83.4604 15.1614 77.6109L102.449 7.87134Z" fill="#474B61" stroke="#328CA1"/>
<path d="M92.5625 76C97 76 100.469 77.5833 102.969 80.75C105.948 84.5 107.438 90.7188 107.438 99.4062C107.438 108.073 105.938 114.302 102.938 118.094C100.458 121.219 97 122.781 92.5625 122.781C88.1042 122.781 84.5104 121.073 81.7812 117.656C79.0521 114.219 77.6875 108.104 77.6875 99.3125C77.6875 90.6875 79.1875 84.4792 82.1875 80.6875C84.6667 77.5625 88.125 76 92.5625 76ZM92.5625 83.2812C91.5 83.2812 90.5521 83.625 89.7188 84.3125C88.8854 84.9792 88.2396 86.1875 87.7812 87.9375C87.1771 90.2083 86.875 94.0312 86.875 99.4062C86.875 104.781 87.1458 108.479 87.6875 110.5C88.2292 112.5 88.9062 113.833 89.7188 114.5C90.5521 115.167 91.5 115.5 92.5625 115.5C93.625 115.5 94.5729 115.167 95.4062 114.5C96.2396 113.812 96.8854 112.594 97.3438 110.844C97.9479 108.594 98.25 104.781 98.25 99.4062C98.25 94.0312 97.9792 90.3438 97.4375 88.3438C96.8958 86.3229 96.2083 84.9792 95.375 84.3125C94.5625 83.625 93.625 83.2812 92.5625 83.2812ZM113.031 109.844L121.531 108.812C121.802 110.979 122.531 112.635 123.719 113.781C124.906 114.927 126.344 115.5 128.031 115.5C129.844 115.5 131.365 114.812 132.594 113.438C133.844 112.062 134.469 110.208 134.469 107.875C134.469 105.667 133.875 103.917 132.688 102.625C131.5 101.333 130.052 100.688 128.344 100.688C127.219 100.688 125.875 100.906 124.312 101.344L125.281 94.1875C127.656 94.25 129.469 93.7396 130.719 92.6562C131.969 91.5521 132.594 90.0938 132.594 88.2812C132.594 86.7396 132.135 85.5104 131.219 84.5938C130.302 83.6771 129.083 83.2188 127.562 83.2188C126.062 83.2188 124.781 83.7396 123.719 84.7812C122.656 85.8229 122.01 87.3438 121.781 89.3438L113.688 87.9688C114.25 85.1979 115.094 82.9896 116.219 81.3438C117.365 79.6771 118.948 78.375 120.969 77.4375C123.01 76.4792 125.292 76 127.812 76C132.125 76 135.583 77.375 138.188 80.125C140.333 82.375 141.406 84.9167 141.406 87.75C141.406 91.7708 139.208 94.9792 134.812 97.375C137.438 97.9375 139.531 99.1979 141.094 101.156C142.677 103.115 143.469 105.479 143.469 108.25C143.469 112.271 142 115.698 139.062 118.531C136.125 121.365 132.469 122.781 128.094 122.781C123.948 122.781 120.51 121.594 117.781 119.219C115.052 116.823 113.469 113.698 113.031 109.844Z" fill="white"/>
<path d="M75.9912 59.442C74.7192 59.442 73.5672 59.166 72.5352 58.614C71.5152 58.05 70.7112 57.276 70.1232 56.292C69.5472 55.308 69.2592 54.198 69.2592 52.962C69.2592 51.726 69.5532 50.616 70.1412 49.632C70.7292 48.648 71.5332 47.88 72.5532 47.328C73.5852 46.764 74.7372 46.482 76.0092 46.482C77.0412 46.482 77.9832 46.662 78.8352 47.022C79.6872 47.382 80.4072 47.904 80.9952 48.588L79.4832 50.01C78.5712 49.026 77.4492 48.534 76.1172 48.534C75.2532 48.534 74.4792 48.726 73.7952 49.11C73.1112 49.482 72.5772 50.004 72.1932 50.676C71.8092 51.348 71.6172 52.11 71.6172 52.962C71.6172 53.814 71.8092 54.576 72.1932 55.248C72.5772 55.92 73.1112 56.448 73.7952 56.832C74.4792 57.204 75.2532 57.39 76.1172 57.39C77.4492 57.39 78.5712 56.892 79.4832 55.896L80.9952 57.336C80.4072 58.02 79.6812 58.542 78.8172 58.902C77.9652 59.262 77.0232 59.442 75.9912 59.442ZM92.1712 48.642H87.9952V59.262H85.6732V48.642H81.5152V46.662H92.1712V48.642ZM104.462 46.662L98.9904 56.832C98.5104 57.732 97.9344 58.41 97.2624 58.866C96.6024 59.31 95.8824 59.532 95.1024 59.532C94.4784 59.532 93.8604 59.4 93.2484 59.136L93.8244 57.3C94.3164 57.456 94.7244 57.534 95.0484 57.534C95.8044 57.534 96.4284 57.144 96.9204 56.364L97.1184 56.058L92.0964 46.662H94.5984L98.3244 54.06L102.158 46.662H104.462ZM117.25 46.662V59.262H114.946V48.642H108.412V59.262H106.108V46.662H117.25ZM130.253 57.3V59.262H120.803V46.662H130.001V48.624H123.143V51.9H129.227V53.826H123.143V57.3H130.253ZM144.057 46.662V59.262H141.717V53.862H135.201V59.262H132.861V46.662H135.201V51.864H141.717V46.662H144.057ZM153.406 50.928C154.918 50.928 156.076 51.27 156.88 51.954C157.696 52.626 158.104 53.628 158.104 54.96C158.104 56.352 157.66 57.42 156.772 58.164C155.884 58.896 154.636 59.262 153.028 59.262H147.61V46.662H149.914V50.928H153.406ZM152.92 57.462C153.832 57.462 154.534 57.252 155.026 56.832C155.518 56.412 155.764 55.8 155.764 54.996C155.764 53.472 154.816 52.71 152.92 52.71H149.914V57.462H152.92Z" fill="#2C8FA5"/>
</svg>
