<svg width="223" height="176" viewBox="0 0 223 176" fill="none" xmlns="http://www.w3.org/2000/svg">
<path d="M102.449 7.87134C107.742 3.64244 115.258 3.64243 120.551 7.87133L207.839 77.6109C215.16 83.4603 215.093 94.614 207.702 100.375L120.414 168.417C115.174 172.502 107.826 172.502 102.586 168.417L15.2978 100.375C7.90699 94.614 7.84016 83.4604 15.1614 77.6109L102.449 7.87134Z" fill="#474B61" stroke="#328CA1"/>
<path d="M93.5625 76C98 76 101.469 77.5833 103.969 80.75C106.948 84.5 108.438 90.7188 108.438 99.4062C108.438 108.073 106.938 114.302 103.938 118.094C101.458 121.219 98 122.781 93.5625 122.781C89.1042 122.781 85.5104 121.073 82.7812 117.656C80.0521 114.219 78.6875 108.104 78.6875 99.3125C78.6875 90.6875 80.1875 84.4792 83.1875 80.6875C85.6667 77.5625 89.125 76 93.5625 76ZM93.5625 83.2812C92.5 83.2812 91.5521 83.625 90.7188 84.3125C89.8854 84.9792 89.2396 86.1875 88.7812 87.9375C88.1771 90.2083 87.875 94.0312 87.875 99.4062C87.875 104.781 88.1458 108.479 88.6875 110.5C89.2292 112.5 89.9062 113.833 90.7188 114.5C91.5521 115.167 92.5 115.5 93.5625 115.5C94.625 115.5 95.5729 115.167 96.4062 114.5C97.2396 113.812 97.8854 112.594 98.3438 110.844C98.9479 108.594 99.25 104.781 99.25 99.4062C99.25 94.0312 98.9792 90.3438 98.4375 88.3438C97.8958 86.3229 97.2083 84.9792 96.375 84.3125C95.5625 83.625 94.625 83.2812 93.5625 83.2812ZM131.562 122V112.781H112.812V105.094L132.688 76H140.062V105.062H145.75V112.781H140.062V122H131.562ZM131.562 105.062V89.4062L121.031 105.062H131.562Z" fill="white"/>
<path d="M75.56 55.18C74.288 55.18 73.136 54.904 72.104 54.352C71.084 53.788 70.28 53.014 69.692 52.03C69.116 51.046 68.828 49.936 68.828 48.7C68.828 47.464 69.122 46.354 69.71 45.37C70.298 44.386 71.102 43.618 72.122 43.066C73.154 42.502 74.306 42.22 75.578 42.22C76.61 42.22 77.552 42.4 78.404 42.76C79.256 43.12 79.976 43.642 80.564 44.326L79.052 45.748C78.14 44.764 77.018 44.272 75.686 44.272C74.822 44.272 74.048 44.464 73.364 44.848C72.68 45.22 72.146 45.742 71.762 46.414C71.378 47.086 71.186 47.848 71.186 48.7C71.186 49.552 71.378 50.314 71.762 50.986C72.146 51.658 72.68 52.186 73.364 52.57C74.048 52.942 74.822 53.128 75.686 53.128C77.018 53.128 78.14 52.63 79.052 51.634L80.564 53.074C79.976 53.758 79.25 54.28 78.386 54.64C77.534 55 76.592 55.18 75.56 55.18ZM91.74 44.38H87.564V55H85.242V44.38H81.084V42.4H91.74V44.38ZM104.031 42.4L98.5592 52.57C98.0792 53.47 97.5032 54.148 96.8312 54.604C96.1712 55.048 95.4512 55.27 94.6712 55.27C94.0472 55.27 93.4292 55.138 92.8172 54.874L93.3932 53.038C93.8852 53.194 94.2932 53.272 94.6172 53.272C95.3732 53.272 95.9972 52.882 96.4892 52.102L96.6872 51.796L91.6652 42.4H94.1672L97.8932 49.798L101.727 42.4H104.031ZM116.819 42.4V55H114.515V44.38H107.981V55H105.677V42.4H116.819ZM129.821 53.038V55H120.371V42.4H129.569V44.362H122.711V47.638H128.795V49.564H122.711V53.038H129.821ZM143.626 42.4V55H141.286V49.6H134.77V55H132.43V42.4H134.77V47.602H141.286V42.4H143.626ZM152.974 46.666C154.486 46.666 155.644 47.008 156.448 47.692C157.264 48.364 157.672 49.366 157.672 50.698C157.672 52.09 157.228 53.158 156.34 53.902C155.452 54.634 154.204 55 152.596 55H147.178V42.4H149.482V46.666H152.974ZM152.488 53.2C153.4 53.2 154.102 52.99 154.594 52.57C155.086 52.15 155.332 51.538 155.332 50.734C155.332 49.21 154.384 48.448 152.488 48.448H149.482V53.2H152.488Z" fill="#2C8FA5"/>
</svg>
