<svg width="471" height="386" viewBox="0 0 471 386" fill="none" xmlns="http://www.w3.org/2000/svg">
<path d="M66.6837 48.4632C70.777 46.856 75.1876 46.1849 79.599 46.4981L263.95 59.5867L383.076 69.8576C398.614 71.1972 410.714 84.2731 410.9 99.9235L413.162 290.595C413.348 306.272 401.516 319.277 385.98 320.474L263.95 329.873L163.668 340.512C149.839 341.98 136.683 333.649 131.936 320.417L48.1716 86.9492C42.6903 71.6715 50.1423 54.9582 65.0448 49.1068L66.6837 48.4632Z" fill="#39A2B8"/>
<path d="M426.572 314.251C421.828 320.127 414.61 323.421 407.024 323.173L247.32 317.955L107.258 312.006C90.985 311.314 78.0413 297.683 78.1259 281.325L79.0662 99.4761C79.1451 84.2138 90.5902 71.6125 105.686 70.1671L187.041 62.3775L332.201 46.6812C346.679 45.1156 360.336 54.2901 364.528 68.3982L430.921 291.831C433.238 299.627 431.612 308.009 426.572 314.251Z" fill="#41455A"/>
</svg>
