<svg width="96" height="22" viewBox="0 0 96 22" fill="none" xmlns="http://www.w3.org/2000/svg">
<path d="M14 13.88V17H0.992V0.199999H13.688V3.32H4.856V6.968H12.656V9.992H4.856V13.88H14ZM24.8735 17L22.0415 13.04L19.1135 17H15.0335L20.0015 10.496L15.2015 4.088H19.4015L22.1375 7.856L24.9455 4.088H28.9295L24.1295 10.4L29.1215 17H24.8735ZM38.5709 3.896C39.7709 3.896 40.8589 4.176 41.8349 4.736C42.8269 5.28 43.6029 6.056 44.1629 7.064C44.7229 8.056 45.0029 9.216 45.0029 10.544C45.0029 11.872 44.7229 13.04 44.1629 14.048C43.6029 15.04 42.8269 15.816 41.8349 16.376C40.8589 16.92 39.7709 17.192 38.5709 17.192C36.9229 17.192 35.6269 16.672 34.6829 15.632V21.656H30.9389V4.088H34.5149V5.576C35.4429 4.456 36.7949 3.896 38.5709 3.896ZM37.9229 14.12C38.8829 14.12 39.6669 13.8 40.2749 13.16C40.8989 12.504 41.2109 11.632 41.2109 10.544C41.2109 9.456 40.8989 8.592 40.2749 7.952C39.6669 7.296 38.8829 6.968 37.9229 6.968C36.9629 6.968 36.1709 7.296 35.5469 7.952C34.9389 8.592 34.6349 9.456 34.6349 10.544C34.6349 11.632 34.9389 12.504 35.5469 13.16C36.1709 13.8 36.9629 14.12 37.9229 14.12ZM51.0853 5.792C51.5333 5.168 52.1333 4.696 52.8853 4.376C53.6533 4.056 54.5333 3.896 55.5253 3.896V7.352C55.1093 7.32 54.8293 7.304 54.6853 7.304C53.6133 7.304 52.7733 7.608 52.1653 8.216C51.5573 8.808 51.2533 9.704 51.2533 10.904V17H47.5093V4.088H51.0853V5.792ZM70.2823 10.592C70.2823 10.64 70.2583 10.976 70.2103 11.6H60.4423C60.6183 12.4 61.0343 13.032 61.6903 13.496C62.3463 13.96 63.1623 14.192 64.1383 14.192C64.8103 14.192 65.4023 14.096 65.9143 13.904C66.4423 13.696 66.9303 13.376 67.3783 12.944L69.3703 15.104C68.1543 16.496 66.3783 17.192 64.0423 17.192C62.5863 17.192 61.2983 16.912 60.1783 16.352C59.0583 15.776 58.1943 14.984 57.5863 13.976C56.9783 12.968 56.6743 11.824 56.6743 10.544C56.6743 9.28 56.9703 8.144 57.5623 7.136C58.1703 6.112 58.9943 5.32 60.0343 4.76C61.0903 4.184 62.2663 3.896 63.5623 3.896C64.8263 3.896 65.9703 4.168 66.9943 4.712C68.0183 5.256 68.8183 6.04 69.3943 7.064C69.9863 8.072 70.2823 9.248 70.2823 10.592ZM63.5863 6.728C62.7383 6.728 62.0263 6.968 61.4503 7.448C60.8743 7.928 60.5223 8.584 60.3943 9.416H66.7543C66.6263 8.6 66.2743 7.952 65.6983 7.472C65.1223 6.976 64.4183 6.728 63.5863 6.728ZM77.1189 17.192C76.0469 17.192 74.9989 17.064 73.9749 16.808C72.9509 16.536 72.1349 16.2 71.5269 15.8L72.7749 13.112C73.3509 13.48 74.0469 13.784 74.8629 14.024C75.6789 14.248 76.4789 14.36 77.2629 14.36C78.8469 14.36 79.6389 13.968 79.6389 13.184C79.6389 12.816 79.4229 12.552 78.9909 12.392C78.5589 12.232 77.8949 12.096 76.9989 11.984C75.9429 11.824 75.0709 11.64 74.3829 11.432C73.6949 11.224 73.0949 10.856 72.5829 10.328C72.0869 9.8 71.8389 9.048 71.8389 8.072C71.8389 7.256 72.0709 6.536 72.5349 5.912C73.0149 5.272 73.7029 4.776 74.5989 4.424C75.5109 4.072 76.5829 3.896 77.8149 3.896C78.7269 3.896 79.6309 4 80.5269 4.208C81.4389 4.4 82.1909 4.672 82.7829 5.024L81.5349 7.688C80.3989 7.048 79.1589 6.728 77.8149 6.728C77.0149 6.728 76.4149 6.84 76.0149 7.064C75.6149 7.288 75.4149 7.576 75.4149 7.928C75.4149 8.328 75.6309 8.608 76.0629 8.768C76.4949 8.928 77.1829 9.08 78.1269 9.224C79.1829 9.4 80.0469 9.592 80.7189 9.8C81.3909 9.992 81.9749 10.352 82.4709 10.88C82.9669 11.408 83.2149 12.144 83.2149 13.088C83.2149 13.888 82.9749 14.6 82.4949 15.224C82.0149 15.848 81.3109 16.336 80.3829 16.688C79.4709 17.024 78.3829 17.192 77.1189 17.192ZM89.8689 17.192C88.7969 17.192 87.7489 17.064 86.7249 16.808C85.7009 16.536 84.8849 16.2 84.2769 15.8L85.5249 13.112C86.1009 13.48 86.7969 13.784 87.6129 14.024C88.4289 14.248 89.2289 14.36 90.0129 14.36C91.5969 14.36 92.3889 13.968 92.3889 13.184C92.3889 12.816 92.1729 12.552 91.7409 12.392C91.3089 12.232 90.6449 12.096 89.7489 11.984C88.6929 11.824 87.8209 11.64 87.1329 11.432C86.4449 11.224 85.8449 10.856 85.3329 10.328C84.8369 9.8 84.5889 9.048 84.5889 8.072C84.5889 7.256 84.8209 6.536 85.2849 5.912C85.7649 5.272 86.4529 4.776 87.3489 4.424C88.2609 4.072 89.3329 3.896 90.5649 3.896C91.4769 3.896 92.3809 4 93.2769 4.208C94.1889 4.4 94.9409 4.672 95.5329 5.024L94.2849 7.688C93.1489 7.048 91.9089 6.728 90.5649 6.728C89.7649 6.728 89.1649 6.84 88.7649 7.064C88.3649 7.288 88.1649 7.576 88.1649 7.928C88.1649 8.328 88.3809 8.608 88.8129 8.768C89.2449 8.928 89.9329 9.08 90.8769 9.224C91.9329 9.4 92.7969 9.592 93.4689 9.8C94.1409 9.992 94.7249 10.352 95.2209 10.88C95.7169 11.408 95.9649 12.144 95.9649 13.088C95.9649 13.888 95.7249 14.6 95.2449 15.224C94.7649 15.848 94.0609 16.336 93.1329 16.688C92.2209 17.024 91.1329 17.192 89.8689 17.192Z" fill="white"/>
</svg>
