<svg width="36" height="33" viewBox="0 0 36 33" fill="none" xmlns="http://www.w3.org/2000/svg">
<path fill-rule="evenodd" clip-rule="evenodd" d="M24.7499 0.21582H11.25C5.03774 0.21582 0 4.71436 0 10.2617V22.3167C0 27.8642 5.03774 32.3626 11.25 32.3626H24.7499C30.9623 32.3626 36 27.8642 36 22.3167V10.2617C36 4.71436 30.9623 0.21582 24.7499 0.21582ZM32.6249 22.3167C32.6249 26.1944 29.0924 29.3488 24.7499 29.3488H11.25C6.90747 29.3488 3.375 26.1944 3.375 22.3167V10.2617C3.375 6.38398 6.90747 3.22958 11.25 3.22958H24.7499C29.0924 3.22958 32.6249 6.38398 32.6249 10.2617V22.3167ZM18 8.25251C13.0297 8.25251 8.99998 11.8509 8.99998 16.2892C8.99998 20.7275 13.0297 24.3259 18 24.3259C22.9702 24.3259 27 20.7275 27 16.2892C27 11.8509 22.9702 8.25251 18 8.25251ZM18 21.3121C14.8995 21.3121 12.375 19.0578 12.375 16.2892C12.375 13.5186 14.8995 11.2663 18 11.2663C21.1005 11.2663 23.625 13.5186 23.625 16.2892C23.625 19.0578 21.1005 21.3121 18 21.3121ZM28.8742 7.64973C28.8742 8.24118 28.3373 8.72062 27.6749 8.72062C27.0126 8.72062 26.4757 8.24118 26.4757 7.64973C26.4757 7.05831 27.0126 6.57884 27.6749 6.57884C28.3373 6.57884 28.8742 7.05831 28.8742 7.64973Z" fill="#BCBCBC"/>
</svg>
