<svg width="40" height="28" viewBox="0 0 40 28" fill="none" xmlns="http://www.w3.org/2000/svg">
<path d="M39.1647 5.14862C38.704 3.51245 37.3532 2.22267 35.6404 1.78209C32.5111 0.964355 19.9939 0.964355 19.9939 0.964355C19.9939 0.964355 7.47715 0.964355 4.3479 1.75109C2.66794 2.1912 1.28431 3.51268 0.823502 5.14862C0 8.13705 0 14.3347 0 14.3347C0 14.3347 0 20.5635 0.823502 23.5207C1.2848 25.1567 2.635 26.4464 4.34816 26.887C7.5101 27.705 19.9944 27.705 19.9944 27.705C19.9944 27.705 32.5111 27.705 35.6404 26.9183C37.3535 26.4779 38.704 25.1881 39.1652 23.5522C39.9885 20.5635 39.9885 14.3661 39.9885 14.3661C39.9885 14.3661 40.0215 8.13705 39.1647 5.14862ZM16.0087 20.0602V8.6091L26.4174 14.3347L16.0087 20.0602Z" fill="#BCBCBC"/>
</svg>
