<svg width="327" height="793" viewBox="0 0 327 793" fill="none" xmlns="http://www.w3.org/2000/svg">
<g filter="url(#filter0_d)">
<path d="M15 96.8225C15 79.5203 35.4816 70.3814 48.3584 81.9378L153.04 175.885C160.762 182.815 172.5 182.69 180.072 175.596L278.326 83.5471C291.101 71.5788 312 80.6372 312 98.1426V656.896C312 663.32 308.914 669.353 303.704 673.113L178.145 763.732C171.278 768.688 162.033 768.781 155.067 763.965L23.6262 673.09C18.2242 669.355 15 663.206 15 656.639V96.8225Z" fill="#2B8FA5"/>
</g>
<g filter="url(#filter1_d)">
<path d="M15 44.8225C15 27.5203 35.4816 18.3814 48.3584 29.9378L153.04 123.885C160.762 130.815 172.5 130.69 180.072 123.596L278.326 31.5471C291.101 19.5788 312 28.6372 312 46.1426V604.896C312 611.32 308.914 617.353 303.704 621.113L178.145 711.732C171.278 716.688 162.033 716.781 155.067 711.965L23.6262 621.09C18.2242 617.355 15 611.206 15 604.639V44.8225Z" fill="#2B8FA5"/>
</g>
<path d="M16.5 21.7904C16.5 13.6666 26.0354 9.29063 32.1946 14.5879L160.7 125.111C164.701 128.552 170.635 128.489 174.562 124.964L296.653 15.3481C302.769 9.85707 312.5 14.1977 312.5 22.4171V584.253C312.5 587.372 310.969 590.292 308.404 592.067L172.972 685.738C169.777 687.947 165.559 687.989 162.321 685.844L20.7528 592.045C18.097 590.285 16.5 587.312 16.5 584.126V21.7904Z" fill="#44485D" stroke="#2B8FA5"/>
<g style="mix-blend-mode:overlay" filter="url(#filter2_d)">
<path d="M55 562C55 550.954 63.9543 542 75 542H170.937L262 542C273.046 542 282 550.954 282 562V567.122C282 573.803 278.664 580.042 273.109 583.753L181.811 644.737C175.205 649.149 166.614 649.234 159.922 644.952L64.2203 583.714C58.4755 580.038 55 573.688 55 566.868V562Z" fill="#787878"/>
<path d="M56 562C56 551.507 64.5066 543 75 543H170.937L262 543C272.493 543 281 551.507 281 562V567.122C281 573.468 277.831 579.396 272.553 582.921L181.256 643.905C174.98 648.097 166.818 648.177 160.461 644.11L64.7593 582.872C59.3018 579.379 56 573.347 56 566.868V562Z" stroke="#2B8FA5" stroke-width="2"/>
</g>
<rect x="42" y="519" width="253" height="42" fill="#44485D"/>
<defs>
<filter id="filter0_d" x="0" y="71.7833" width="327" height="720.731" filterUnits="userSpaceOnUse" color-interpolation-filters="sRGB">
<feFlood flood-opacity="0" result="BackgroundImageFix"/>
<feColorMatrix in="SourceAlpha" type="matrix" values="0 0 0 0 0 0 0 0 0 0 0 0 0 0 0 0 0 0 127 0"/>
<feOffset dy="10"/>
<feGaussianBlur stdDeviation="7.5"/>
<feColorMatrix type="matrix" values="0 0 0 0 0 0 0 0 0 0 0 0 0 0 0 0 0 0 0.25 0"/>
<feBlend mode="normal" in2="BackgroundImageFix" result="effect1_dropShadow"/>
<feBlend mode="normal" in="SourceGraphic" in2="effect1_dropShadow" result="shape"/>
</filter>
<filter id="filter1_d" x="5" y="24.7833" width="317" height="710.731" filterUnits="userSpaceOnUse" color-interpolation-filters="sRGB">
<feFlood flood-opacity="0" result="BackgroundImageFix"/>
<feColorMatrix in="SourceAlpha" type="matrix" values="0 0 0 0 0 0 0 0 0 0 0 0 0 0 0 0 0 0 127 0"/>
<feOffset dy="10"/>
<feGaussianBlur stdDeviation="5"/>
<feColorMatrix type="matrix" values="0 0 0 0 0.0976562 0 0 0 0 0.182109 0 0 0 0 0.1875 0 0 0 0.14 0"/>
<feBlend mode="normal" in2="BackgroundImageFix" result="effect1_dropShadow"/>
<feBlend mode="normal" in="SourceGraphic" in2="effect1_dropShadow" result="shape"/>
</filter>
<filter id="filter2_d" x="40" y="537" width="257" height="136.106" filterUnits="userSpaceOnUse" color-interpolation-filters="sRGB">
<feFlood flood-opacity="0" result="BackgroundImageFix"/>
<feColorMatrix in="SourceAlpha" type="matrix" values="0 0 0 0 0 0 0 0 0 0 0 0 0 0 0 0 0 0 127 0"/>
<feOffset dy="10"/>
<feGaussianBlur stdDeviation="7.5"/>
<feColorMatrix type="matrix" values="0 0 0 0 0 0 0 0 0 0 0 0 0 0 0 0 0 0 0.25 0"/>
<feBlend mode="normal" in2="BackgroundImageFix" result="effect1_dropShadow"/>
<feBlend mode="normal" in="SourceGraphic" in2="effect1_dropShadow" result="shape"/>
</filter>
</defs>
</svg>
